<?xml version="1.0" encoding="utf-8"?>
<!-- Generator: Adobe Illustrator 23.0.5, SVG Export Plug-In . SVG Version: 6.00 Build 0)  -->
<svg version="1.1" id="stacked-peaks-haikei_1_" xmlns="http://www.w3.org/2000/svg" xmlns:xlink="http://www.w3.org/1999/xlink"
	 x="0px" y="0px" viewBox="0 0 1000 450" style="enable-background:new 0 0 1000 450;" xml:space="preserve">
<style type="text/css">
	.st0{fill:#00D700;}
	.st1{fill:#00B540;}
	.st2{fill:#009100;}
	.st3{fill:#006F00;}
</style>
<path id="Path_2" class="st0" d="M0,121.4l166.7,40l255.2,2.4l161.4,8.5l173.5-14.6l106.8,11l136.4,14.5V0H0V121.4z"/>
<path id="Path_3" class="st1" d="M0,210.3l166.7,33.4l166.7,23L500,323l166.7-96l166.7,56.4L1000,250V84c0,0,0,0,0,0v37.4
	c-39.5,20.9-114.3-5.5-155.9-21.9C778,73.4,684.8,78.3,599,121.4c-55.3,27.8-92.2,48.1-178.6-4.7c-93.4-57-140.2-28.3-269.2-25.1
	C54.6,94.1,0,14.6,0,14.6V210.3z"/>
<path id="Path_4" class="st2" d="M0,279L166.7,316l148.4,56.6L500,413.1l166.7-52L833.3,450l166.7-73.9V188.8l-123.4,32.4
	c-28.1,7.4-138.2-30.7-138.2-30.7c-44.8-19.9-95.7-13.7-135.6,16.4l-33.7,25.5c-15.5,11.7-35,21.6-55,28
	c-38.9,12.4-81.2-1.2-106.8-33c-9.4-11.7-23.3-25.5-42-35c-24-12.2-52.1-13.6-77.5-4.8c-30.1,10.4-102.8,29-181.3,1.7L0,136.8V279z"
	/>
<path id="Path_5" class="st3" d="M0,450h1000V318.6c0,0-45.3,37.8-109.7,35.7c-67.2-2.2-118.3-55-197.8-54.5
	c-66.2,0.5-145.5,62.5-243.8,68.7c-67,4.2-157-25.5-177.3-36c-25.4-13.1-84.2-46.1-139-60C82.1,259.7,0,271.9,0,271.9V450z"/>
</svg>
